<?xml version="1.0"?>
<svg width="780" height="190" xmlns="http://www.w3.org/2000/svg" xmlns:svg="http://www.w3.org/2000/svg" xmlns:xlink="http://www.w3.org/1999/xlink" version="1.1">
 <!-- Created with SVG-edit - https://github.com/SVG-Edit/svgedit-->
 <defs>
  <symbol height="300" id="svg_1" width="840" xmlns="http://www.w3.org/2000/svg" xmlns:cc="http://creativecommons.org/ns#" xmlns:dc="http://purl.org/dc/elements/1.1/" xmlns:rdf="http://www.w3.org/1999/02/22-rdf-syntax-ns#" xmlns:svg="http://www.w3.org/2000/svg">
   <path d="m64.76,49.11c-16.21,6.78 -34.03,25.95 -39.66,50.01c-7.13,30.49 22.54,43.38 24.97,39.16c2.86,-4.97 -5.32,-6.65 -7,-22.47c-2.18,-20.43 7.32,-43.26 19.28,-53.27c2.22,-1.86 2.11,0.73 2.11,5.52c0,8.56 -0.47,85.48 -0.47,101.53c0,21.72 -0.9,28.58 -2.51,35.35c-1.63,6.87 -4.26,11.51 -2.27,13.3c2.22,2 11.71,-2.76 17.2,-10.42c6.59,-9.2 8.89,-20.24 9.31,-32.23c0.5,-14.45 0.48,-37.38 0.5,-50.46c0.02,-12 0.2,-47.13 -0.21,-68.25c-0.1,-5.18 -14.47,-10.62 -21.25,-7.78m575.63,101.66c-0.53,11.29 -3.03,20.11 -6.13,26.34c-6,12.05 -18.46,15.79 -23.76,-1.53c-2.88,-9.45 -3.01,-25.22 -0.94,-38.4c2.11,-13.42 8,-23.56 17.76,-22.65c9.62,0.91 14.13,13.31 13.07,36.23l0,0.01zm-162.24,70.05c-0.13,18.76 -3.08,35.21 -9.41,39.99c-8.99,6.78 -21.06,1.69 -18.56,-12c2.21,-12.11 12.67,-24.48 28,-39.6c0,0 0.03,3.45 -0.03,11.61zm-2.45,-70.16c-0.55,10.28 -3.22,20.61 -6.13,26.45c-6,12.05 -18.55,15.82 -23.75,-1.53c-3.56,-11.86 -2.71,-27.2 -0.95,-36.87c2.28,-12.54 7.82,-24.18 17.76,-24.18c9.67,0 14.43,10.61 13.07,36.13zm-93.98,-0.16c-0.59,10.89 -2.72,20 -6.13,26.61c-6.17,11.97 -18.37,15.76 -23.76,-1.53c-3.88,-12.47 -2.56,-29.48 -0.94,-38.66c2.39,-13.64 8.39,-23.3 17.76,-22.39c9.62,0.94 14.29,13.31 13.07,35.97zm430.7,12.72c-2.35,0 -3.43,2.42 -4.31,6.51c-3.08,14.18 -6.32,17.38 -10.49,17.38c-4.67,0 -8.86,-7.02 -9.93,-21.08c-0.85,-11.06 -0.71,-31.42 0.37,-51.67c0.22,-4.16 -0.93,-8.27 -12.09,-12.33c-4.8,-1.74 -11.78,-4.31 -15.25,4.08c-9.82,23.7 -13.67,42.52 -14.57,50.16c-0.05,0.4 -0.53,0.48 -0.62,-0.44c-0.57,-6.13 -1.86,-17.25 -2.02,-40.63c-0.03,-4.56 -1,-8.44 -6.03,-11.62c-3.27,-2.06 -13.19,-5.71 -16.76,-1.37c-3.09,3.55 -6.67,13.1 -10.4,24.42c-3.02,9.2 -5.13,15.43 -5.13,15.43c0,0 0.04,-24.83 0.07,-34.25c0.02,-3.55 -2.42,-4.73 -3.15,-4.95c-3.31,-0.96 -9.82,-2.56 -12.59,-2.56c-3.41,0 -4.25,1.91 -4.25,4.69c0,0.36 -0.54,32.68 -0.54,55.28c0,0.99 0,2.06 0.01,3.19c-1.88,10.39 -8.01,24.49 -14.66,24.49c-6.67,0 -9.81,-5.89 -9.81,-32.84c0,-15.71 0.47,-22.55 0.7,-33.92c0.13,-6.55 0.39,-11.57 0.38,-12.72c-0.05,-3.49 -6.1,-5.26 -8.92,-5.91c-2.82,-0.66 -5.28,-0.91 -7.2,-0.8c-2.72,0.15 -4.64,1.93 -4.64,4.38c0,1.32 0.01,3.82 0.01,3.82c-3.5,-5.5 -9.12,-9.33 -12.87,-10.44c-10.08,-2.99 -20.61,-0.34 -28.55,10.77c-6.31,8.83 -10.11,18.82 -11.61,33.19c-1.09,10.5 -0.73,21.14 1.21,30.15c-2.35,10.16 -6.71,14.32 -11.49,14.32c-6.94,0 -11.97,-11.32 -11.38,-30.9c0.38,-12.88 2.96,-21.91 5.78,-34.99c1.2,-5.57 0.22,-8.49 -2.22,-11.29c-2.25,-2.56 -7.03,-3.87 -13.91,-2.26c-4.9,1.15 -11.9,2.38 -18.31,3.33c0,0 0.39,-1.54 0.71,-4.26c1.66,-14.26 -13.83,-13.1 -18.78,-8.55c-2.95,2.72 -4.96,5.93 -5.72,11.7c-1.21,9.15 6.26,13.46 6.26,13.46c-2.45,11.21 -8.46,25.86 -14.65,36.45c-3.32,5.67 -5.86,9.87 -9.14,14.34c-0.01,-1.66 -0.02,-3.33 -0.03,-4.98c-0.07,-23.57 0.24,-42.12 0.38,-48.81c0.13,-6.54 0.4,-11.44 0.38,-12.58c-0.04,-2.56 -1.53,-3.53 -4.64,-4.75c-2.75,-1.08 -6,-1.83 -9.37,-2.09c-4.25,-0.33 -6.82,1.92 -6.75,4.59c0.01,0.51 0.01,3.6 0.01,3.6c-3.5,-5.5 -9.13,-9.33 -12.87,-10.44c-10.09,-2.99 -20.61,-0.34 -28.55,10.77c-6.31,8.83 -10.44,21.21 -11.61,33.08c-1.09,11.06 -0.89,20.45 0.6,28.37c-1.61,7.92 -6.22,16.21 -11.43,16.21c-6.67,0 -10.46,-5.89 -10.46,-32.84c0,-15.71 0.47,-22.55 0.71,-33.92c0.13,-6.54 0.39,-11.57 0.38,-12.71c-0.05,-3.5 -6.1,-5.27 -8.92,-5.92c-2.95,-0.68 -5.49,-0.93 -7.44,-0.79c-2.58,0.19 -4.39,2.5 -4.39,4.22l0,3.97c-3.5,-5.5 -9.13,-9.33 -12.87,-10.44c-10.09,-2.99 -20.56,-0.29 -28.55,10.77c-5.22,7.22 -9.44,15.21 -11.61,32.92c-0.63,5.12 -0.91,9.91 -0.87,14.39c-2.08,12.71 -11.27,27.37 -18.78,27.37c-4.4,0 -8.58,-8.52 -8.58,-26.7c0,-24.21 1.5,-58.68 1.75,-62c0,0 9.49,-0.16 11.33,-0.18c4.73,-0.05 9.02,0.06 15.33,-0.26c3.16,-0.16 6.21,-11.52 2.95,-12.92c-1.48,-0.64 -11.94,-1.19 -16.09,-1.28c-3.48,-0.08 -13.19,-0.8 -13.19,-0.8c0,0 0.87,-22.88 1.08,-25.29c0.17,-2.02 -2.44,-3.06 -3.93,-3.69c-3.64,-1.53 -6.89,-2.27 -10.74,-3.06c-5.33,-1.1 -7.74,-0.03 -8.21,4.47c-0.71,6.82 -1.08,26.79 -1.08,26.79c-3.91,0 -17.26,-0.76 -21.17,-0.76c-3.63,0 -7.55,15.62 -2.53,15.81c5.78,0.22 15.85,0.42 22.52,0.62c0,0 -0.3,35.03 -0.3,45.85c0,1.15 0.01,2.26 0.01,3.33c-3.67,19.15 -16.6,29.49 -16.6,29.49c2.77,-12.67 -2.9,-22.18 -13.12,-30.23c-3.77,-2.96 -11.2,-8.58 -19.52,-14.73c0,0 4.82,-4.75 9.09,-14.31c3.03,-6.76 3.16,-14.51 -4.27,-16.21c-12.28,-2.83 -22.41,6.19 -25.42,15.82c-2.34,7.45 -1.1,12.99 3.49,18.73c0.33,0.42 0.69,0.85 1.07,1.29c-2.77,5.34 -6.58,12.53 -9.8,18.11c-8.96,15.48 -15.72,27.73 -20.83,27.73c-4.08,0 -4.03,-12.44 -4.03,-24.08c0,-10.04 0.75,-25.13 1.34,-40.75c0.19,-5.17 -2.39,-8.11 -6.72,-10.78c-2.63,-1.62 -8.25,-4.8 -11.5,-4.8c-4.87,0 -18.92,0.66 -32.19,39.05c-1.67,4.84 -4.96,13.66 -4.96,13.66l0.29,-46.17c0,-1.08 -0.58,-2.13 -1.9,-2.84c-2.24,-1.22 -8.21,-3.7 -13.52,-3.7c-2.53,0 -3.8,1.18 -3.8,3.52l-0.46,72.23c0,5.49 0.14,11.89 0.69,14.69c0.54,2.81 1.41,5.09 2.5,6.44c1.08,1.36 2.33,2.39 4.4,2.82c1.92,0.39 12.45,1.75 13,-2.28c0.65,-4.82 0.68,-10.03 6.21,-29.48c8.6,-30.28 19.82,-45.06 25.1,-50.31c0.92,-0.91 1.97,-0.97 1.92,0.53c-0.22,6.64 -1.02,23.23 -1.55,37.32c-1.43,37.72 5.43,44.71 15.24,44.71c7.5,0 18.07,-7.45 29.41,-26.32c7.07,-11.76 13.93,-23.29 18.86,-31.6c3.43,3.18 7.29,6.61 11.14,10.26c8.95,8.5 11.89,16.58 9.94,24.24c-1.49,5.85 -7.11,11.89 -17.11,6.02c-2.91,-1.71 -4.15,-3.03 -7.08,-4.96c-1.58,-1.04 -3.98,-1.35 -5.42,-0.26c-3.75,2.82 -5.89,6.41 -7.11,10.85c-1.19,4.33 3.14,6.61 7.63,8.61c3.87,1.73 12.18,3.29 17.48,3.46c20.64,0.69 37.18,-9.97 48.7,-37.46c2.06,23.74 10.83,37.18 26.07,37.18c10.19,0 20.4,-13.17 24.87,-26.12c1.28,5.28 3.18,9.87 5.63,13.75c11.75,18.61 34.53,14.6 45.97,-1.2c3.54,-4.88 4.08,-6.63 4.08,-6.63c1.67,14.92 13.68,20.13 20.56,20.13c7.7,0 15.66,-3.64 21.23,-16.19c0.65,1.36 1.37,2.66 2.15,3.89c11.74,18.61 34.52,14.6 45.96,-1.2c0.54,-0.74 1.01,-1.41 1.42,-2.01l0.34,9.8c0,0 -6.53,5.99 -10.54,9.66c-17.64,16.18 -31.05,28.46 -32.03,42.75c-1.27,18.23 13.51,25.01 24.7,25.89c11.88,0.95 22.05,-5.62 28.3,-14.8c5.5,-8.08 9.1,-25.48 8.83,-42.66c-0.1,-6.88 -0.27,-15.62 -0.41,-25c6.2,-7.2 13.18,-16.3 19.61,-26.95c7.01,-11.6 14.52,-27.19 18.37,-39.32c0,0 6.52,0.06 13.49,-0.4c2.22,-0.14 2.86,0.31 2.45,1.94c-0.49,1.98 -8.8,33.99 -1.22,55.32c5.19,14.6 16.88,19.3 23.81,19.3c8.11,0 15.87,-6.13 20.03,-15.22c0.5,1.01 1.02,1.99 1.6,2.9c11.74,18.6 34.44,14.58 45.96,-1.2c2.6,-3.56 4.08,-6.64 4.08,-6.64c2.47,15.44 14.48,20.21 21.36,20.21c7.16,0 13.96,-2.93 19.48,-15.99c0.23,5.75 0.59,10.45 1.16,11.93c0.35,0.91 2.39,2.05 3.87,2.59c6.55,2.44 13.24,1.29 15.71,0.79c1.71,-0.35 3.05,-1.72 3.23,-5.27c0.48,-9.32 0.19,-24.98 3.01,-36.61c4.74,-19.53 9.17,-27.1 11.26,-30.85c1.18,-2.11 2.5,-2.45 2.55,-0.23c0.1,4.5 0.32,17.71 2.16,35.46c1.35,13.06 3.15,20.78 4.54,23.22c3.95,6.98 8.83,7.31 12.81,7.31c2.53,0 7.81,-0.7 7.34,-5.14c-0.23,-2.17 0.17,-15.55 4.85,-34.79c3.05,-12.56 8.14,-23.92 9.98,-28.07c0.67,-1.53 0.99,-0.32 0.98,-0.08c-0.39,8.65 -1.26,36.95 2.27,52.42c4.78,20.97 18.6,23.32 23.41,23.32c10.29,0 18.7,-7.83 21.53,-28.41c0.68,-4.95 -0.33,-8.77 -3.36,-8.77" fill="#fff" id="svg_13"/>
  </symbol>
  <symbol height="1000" id="svg_11" viewBox="0 0 264.5833 264.5833" width="1000" xmlns="http://www.w3.org/2000/svg" xmlns:inkscape="http://www.inkscape.org/namespaces/inkscape" xmlns:sodipodi="http://sodipodi.sourceforge.net/DTD/sodipodi-0.dtd" xmlns:xlink="http://www.w3.org/1999/xlink">
   <defs>
    <radialGradient cx="158.43" cy="578.09" fx="158.43" fy="578.09" gradientTransform="matrix(0 -4.03418 4.28018 0 -2332.2273 942.2356)" gradientUnits="userSpaceOnUse" id="svg_5" r="52.35" xlink:href="#svg_7"/>
    <radialGradient cx="172.61" cy="600.69" fx="172.61" fy="600.69" gradientTransform="matrix(.67441 -1.16203 1.51283 .87801 -814.3657 -47.8354)" gradientUnits="userSpaceOnUse" id="svg_4" r="65" xlink:href="#svg_8"/>
    <radialGradient cx="144.01" cy="51.34" fx="144.01" fy="51.34" gradientTransform="matrix(-2.3989 .67549 -.23008 -.81732 464.9957 -26.4035)" gradientUnits="userSpaceOnUse" id="svg_3" r="67.08" xlink:href="#svg_9"/>
    <radialGradient cx="199.79" cy="628.44" fx="199.79" fy="628.44" gradientTransform="matrix(-3.10797 .87652 -.6315 -2.23914 1345.6503 1374.1983)" gradientUnits="userSpaceOnUse" id="svg_6" r="52.35" xlink:href="#svg_10"/>
    <linearGradient id="svg_10">
     <stop offset="0" stop-color="#ff005f"/>
     <stop offset="1" stop-color="#fc01d8"/>
    </linearGradient>
    <linearGradient id="svg_9">
     <stop offset="0" stop-color="#780cff"/>
     <stop offset="1" stop-color="#820bff" stop-opacity="0"/>
    </linearGradient>
    <linearGradient id="svg_8">
     <stop offset="0" stop-color="#fc0"/>
     <stop offset="1" stop-color="#fc0" stop-opacity="0"/>
    </linearGradient>
    <linearGradient id="svg_7">
     <stop offset="0" stop-color="#fc0"/>
     <stop offset="0.12" stop-color="#fc0"/>
     <stop offset="0.57" stop-color="#fe4a05"/>
     <stop offset="0.69" stop-color="#ff0f3f"/>
     <stop offset="1" stop-color="#fe0657" stop-opacity="0"/>
    </linearGradient>
   </defs>
   <g id="svg_14">
    <path d="m204.15,18.14c-55.23,0 -71.38,0.06 -74.52,0.32c-11.34,0.94 -18.39,2.73 -26.07,6.55c-5.93,2.95 -10.6,6.36 -15.2,11.13c-8.4,8.72 -13.49,19.44 -15.33,32.19c-0.89,6.19 -1.15,7.45 -1.21,39.05c-0.02,10.54 0,24.4 0,43c0,55.2 0.07,71.34 0.33,74.48c0.92,11.03 2.65,17.97 6.31,25.56c7,14.54 20.37,25.45 36.12,29.52c5.45,1.4 11.47,2.18 19.21,2.54c3.27,0.14 36.66,0.25 70.08,0.25c33.41,0 66.82,-0.04 70.02,-0.21c8.95,-0.42 14.15,-1.12 19.9,-2.6c15.85,-4.09 28.98,-14.84 36.12,-29.58c3.59,-7.41 5.41,-14.61 6.23,-25.07c0.18,-2.28 0.26,-38.62 0.26,-74.92c0,-36.31 -0.08,-72.59 -0.26,-74.87c-0.84,-10.62 -2.66,-17.76 -6.36,-25.32c-3.05,-6.18 -6.42,-10.79 -11.33,-15.51c-8.75,-8.37 -19.45,-13.45 -32.21,-15.29c-6.18,-0.9 -7.41,-1.16 -39.03,-1.22l-43.06,0z" fill="url(#svg_6)" id="svg_15" transform="translate(-71.8155 -18.1429)"/>
    <path d="m204.15,18.14c-55.23,0 -71.38,0.06 -74.52,0.32c-11.34,0.94 -18.39,2.73 -26.07,6.55c-5.93,2.95 -10.6,6.36 -15.2,11.13c-8.4,8.72 -13.49,19.44 -15.33,32.19c-0.89,6.19 -1.15,7.45 -1.21,39.05c-0.02,10.54 0,24.4 0,43c0,55.2 0.07,71.34 0.33,74.48c0.92,11.03 2.65,17.97 6.31,25.56c7,14.54 20.37,25.45 36.12,29.52c5.45,1.4 11.47,2.18 19.21,2.54c3.27,0.14 36.66,0.25 70.08,0.25c33.41,0 66.82,-0.04 70.02,-0.21c8.95,-0.42 14.15,-1.12 19.9,-2.6c15.85,-4.09 28.98,-14.84 36.12,-29.58c3.59,-7.41 5.41,-14.61 6.23,-25.07c0.18,-2.28 0.26,-38.62 0.26,-74.92c0,-36.31 -0.08,-72.59 -0.26,-74.87c-0.84,-10.62 -2.66,-17.76 -6.36,-25.32c-3.05,-6.18 -6.42,-10.79 -11.33,-15.51c-8.75,-8.37 -19.45,-13.45 -32.21,-15.29c-6.18,-0.9 -7.41,-1.16 -39.03,-1.22l-43.06,0z" fill="url(#svg_5)" id="svg_16" transform="translate(-71.8155 -18.1429)"/>
    <path d="m204.15,18.14c-55.23,0 -71.38,0.06 -74.52,0.32c-11.34,0.94 -18.39,2.73 -26.07,6.55c-5.93,2.95 -10.6,6.36 -15.2,11.13c-8.4,8.72 -13.49,19.44 -15.33,32.19c-0.89,6.19 -1.15,7.45 -1.21,39.05c-0.02,10.54 0,24.4 0,43c0,55.2 0.07,71.34 0.33,74.48c0.92,11.03 2.65,17.97 6.31,25.56c7,14.54 20.37,25.45 36.12,29.52c5.45,1.4 11.47,2.18 19.21,2.54c3.27,0.14 36.66,0.25 70.08,0.25c33.41,0 66.82,-0.04 70.02,-0.21c8.95,-0.42 14.15,-1.12 19.9,-2.6c15.85,-4.09 28.98,-14.84 36.12,-29.58c3.59,-7.41 5.41,-14.61 6.23,-25.07c0.18,-2.28 0.26,-38.62 0.26,-74.92c0,-36.31 -0.08,-72.59 -0.26,-74.87c-0.84,-10.62 -2.66,-17.76 -6.36,-25.32c-3.05,-6.18 -6.42,-10.79 -11.33,-15.51c-8.75,-8.37 -19.45,-13.45 -32.21,-15.29c-6.18,-0.9 -7.41,-1.16 -39.03,-1.22l-43.06,0z" fill="url(#svg_4)" id="svg_17" transform="translate(-71.8155 -18.1429)"/>
    <path d="m204.15,18.14c-55.23,0 -71.38,0.06 -74.52,0.32c-11.34,0.94 -18.39,2.73 -26.07,6.55c-5.93,2.95 -10.6,6.36 -15.2,11.13c-8.4,8.72 -13.49,19.44 -15.33,32.19c-0.89,6.19 -1.15,7.45 -1.21,39.05c-0.02,10.54 0,24.4 0,43c0,55.2 0.07,71.34 0.33,74.48c0.92,11.03 2.65,17.97 6.31,25.56c7,14.54 20.37,25.45 36.12,29.52c5.45,1.4 11.47,2.18 19.21,2.54c3.27,0.14 36.66,0.25 70.08,0.25c33.41,0 66.82,-0.04 70.02,-0.21c8.95,-0.42 14.15,-1.12 19.9,-2.6c15.85,-4.09 28.98,-14.84 36.12,-29.58c3.59,-7.41 5.41,-14.61 6.23,-25.07c0.18,-2.28 0.26,-38.62 0.26,-74.92c0,-36.31 -0.08,-72.59 -0.26,-74.87c-0.84,-10.62 -2.66,-17.76 -6.36,-25.32c-3.05,-6.18 -6.42,-10.79 -11.33,-15.51c-8.75,-8.37 -19.45,-13.45 -32.21,-15.29c-6.18,-0.9 -7.41,-1.16 -39.03,-1.22l-43.06,0z" fill="url(#svg_3)" id="svg_18" transform="translate(-71.8155 -18.1429)"/>
    <path d="m132.35,33.97c-26.72,0 -30.07,0.12 -40.57,0.6c-10.47,0.48 -17.62,2.13 -23.87,4.56c-6.47,2.51 -11.96,5.87 -17.43,11.34c-5.47,5.46 -8.83,10.95 -11.35,17.41c-2.44,6.25 -4.1,13.4 -4.57,23.86c-0.47,10.48 -0.6,13.84 -0.6,40.53c0,26.7 0.12,30.04 0.6,40.53c0.48,10.46 2.14,17.6 4.57,23.85c2.51,6.47 5.87,11.95 11.34,17.42c5.47,5.47 10.96,8.83 17.42,11.34c6.26,2.44 13.41,4.09 23.88,4.57c10.5,0.48 13.85,0.59 40.56,0.59c26.72,0 30.06,-0.11 40.56,-0.59c10.47,-0.48 17.63,-2.13 23.89,-4.57c6.46,-2.51 11.94,-5.87 17.41,-11.34c5.47,-5.47 8.83,-10.95 11.35,-17.41c2.42,-6.26 4.08,-13.4 4.57,-23.86c0.48,-10.49 0.6,-13.83 0.6,-40.53c0,-26.69 -0.12,-30.04 -0.6,-40.53c-0.49,-10.46 -2.15,-17.61 -4.57,-23.86c-2.52,-6.46 -5.88,-11.95 -11.35,-17.41c-5.47,-5.47 -10.94,-8.83 -17.42,-11.34c-6.27,-2.43 -13.42,-4.08 -23.9,-4.56c-10.49,-0.48 -13.83,-0.6 -40.56,-0.6l0.04,0zm-8.83,17.72c2.62,-0.01 5.54,0 8.83,0c26.26,0 29.37,0.09 39.75,0.56c9.59,0.44 14.79,2.04 18.26,3.39c4.59,1.78 7.87,3.91 11.31,7.35c3.44,3.44 5.57,6.72 7.36,11.3c1.34,3.47 2.95,8.67 3.39,18.25c0.47,10.36 0.57,13.48 0.57,39.71c0,26.24 -0.1,29.35 -0.57,39.71c-0.44,9.59 -2.05,14.79 -3.39,18.25c-1.79,4.59 -3.92,7.85 -7.36,11.29c-3.45,3.44 -6.72,5.57 -11.31,7.35c-3.46,1.35 -8.67,2.95 -18.26,3.39c-10.37,0.47 -13.49,0.57 -39.75,0.57c-26.27,0 -29.39,-0.1 -39.76,-0.57c-9.59,-0.44 -14.79,-2.04 -18.26,-3.39c-4.59,-1.78 -7.87,-3.91 -11.32,-7.35c-3.44,-3.44 -5.57,-6.71 -7.36,-11.3c-1.34,-3.46 -2.95,-8.66 -3.39,-18.25c-0.47,-10.36 -0.56,-13.47 -0.56,-39.72c0,-26.25 0.09,-29.35 0.56,-39.71c0.44,-9.59 2.05,-14.79 3.39,-18.25c1.79,-4.59 3.92,-7.87 7.36,-11.31c3.45,-3.44 6.73,-5.57 11.32,-7.35c3.46,-1.36 8.67,-2.95 18.26,-3.39c9.08,-0.41 12.6,-0.54 30.93,-0.56l0,0.03zm61.34,16.32c-6.52,0 -11.81,5.28 -11.81,11.79c0,6.51 5.29,11.8 11.81,11.8c6.51,0 11.8,-5.29 11.8,-11.8c0,-6.51 -5.29,-11.79 -11.8,-11.79zm-52.51,13.78c-27.9,0 -50.52,22.61 -50.52,50.48c0,27.88 22.62,50.48 50.52,50.48s50.51,-22.6 50.51,-50.48c0,-27.87 -22.62,-50.48 -50.52,-50.48l0.01,0zm0,17.72c18.1,0 32.79,14.67 32.79,32.76c0,18.1 -14.69,32.77 -32.79,32.77c-18.12,0 -32.8,-14.67 -32.8,-32.77c0,-18.09 14.68,-32.76 32.8,-32.76z" fill="#fff" id="svg_19"/>
   </g>
  </symbol>
 </defs>
 <g class="layer">
  <title>Layer 1</title>
  <use id="svg_2" transform="matrix(0.737483 0 0 0.737483 -3873.86 -1127.59)" x="5489.94" xlink:href="#svg_1" y="1496.72"/>
  <use id="svg_12" transform="matrix(0.168978 0 0 0.168978 -5.85034 -56.4692)" x="121.79" xlink:href="#svg_11" y="394.54"/>
 </g>
</svg>