<?xml version="1.0"?>
<svg width="297" height="337" xmlns="http://www.w3.org/2000/svg" xmlns:svg="http://www.w3.org/2000/svg" enable-background="new 0 0 325 450" version="1.1" xml:space="preserve">
 <g class="layer">
  <title>Layer 1</title>
  <g id="svg_1">
   <polygon fill="#EFC725" id="svg_2" points="27.07000160217285,303.6219940185547 0,0 297.45000648498535,0 270.352014541626,303.57298278808594 148.54299354553223,337.34300231933594 "/>
   <polygon fill="#FBDE34" id="svg_3" points="148.47500038146973,311.1549835205078 246.90300941467285,283.8679962158203 270.060998916626,24.45099639892578 148.47500038146973,24.45099639892578 "/>
   <polygon fill="#EBEBEB" id="svg_4" points="148.41799354553223,233.7939910888672 148.25600624084473,233.8409881591797 106.78399848937988,222.63999938964844 104.1309986114502,192.94300842285156 83.98099708557129,192.94300842285156 66.75200080871582,192.94300842285156 71.96900367736816,251.41099548339844 148.24599647521973,272.5869903564453 148.41799354553223,272.5380096435547 "/>
   <polygon fill="#EBEBEB" id="svg_5" points="153.4340000152588,174.3050079345703 153.4340000152588,137.0679931640625 107.58000373840332,137.0679931640625 112.95700263977051,78.62599182128906 153.53699684143066,77.54499816894531 153.4340000152588,38.821990966796875 79.29000282287598,38.821990966796875 76.53599739074707,66.27099609375 67.78399848937988,164.3059844970703 66.87600135803223,174.3050079345703 76.91099739074707,174.3050079345703 "/>
   <polygon fill="#FFFFFF" id="svg_6" points="153.1820011138916,77.59700012207031 153.34499549865723,77.55099487304688 194.01600074768066,80 197.46700477600098,118.44699096679688 217.61800575256348,118.44699096679688 234.84800148010254,118.44699096679688 228.33399391174316,46.50099182128906 153.3539981842041,38.80499267578125 153.1820011138916,38.852996826171875 "/>
   <polyline fill="#FFFFFF" id="svg_7" points="231.00899696350098,77.71099853515625 227.81800270080566,38.821990966796875 149.2150058746338,38.821990966796875 149.2150058746338,62.9739990234375 149.2150058746338,77.61399841308594 149.2150058746338,77.71099853515625 231.00899696350098,77.71099853515625 "/>
   <polygon fill="#FFFFFF" id="svg_8" points="148.28899574279785,137.08599853515625 148.28899574279785,174.32200622558594 194.14299964904785,174.32200622558594 189.8209934234619,222.61500549316406 148.28899574279785,233.82701110839844 148.28899574279785,272.56898498535156 224.62900733947754,251.41099548339844 225.18799781799316,245.12001037597656 233.93999671936035,147.08499145507812 234.84800148010254,137.08599853515625 224.81299781799316,137.08599853515625 "/>
   <path d="m226.23,76.06" fill="#FFFFFF" id="svg_9"/>
   <path d="m225.74,76.06" fill="#FFFFFF" id="svg_13"/>
  </g>
 </g>
</svg>