<?xml version="1.0"?>
<svg width="76" height="76" xmlns="http://www.w3.org/2000/svg" xmlns:svg="http://www.w3.org/2000/svg" version="1.1">
 <!-- Created with SVG-edit - https://github.com/SVG-Edit/svgedit-->
 <g class="layer">
  <title>Layer 1</title>
  <g id="svg_1">
   <g id="svg_2" transform="matrix(1.01883 0 0 -1.01883 170.6 498.033)">
    <path d="m-167.45,483.47c0,2.96 2.46,5.36 5.5,5.36l63.37,0c3.04,0 5.5,-2.4 5.5,-5.36l0,-64.12c0,-2.96 -2.46,-5.36 -5.5,-5.36l-63.37,0c-3.04,0 -5.5,2.4 -5.5,5.36l0,64.12z" fill="#006699" fill-rule="nonzero" id="svg_3"/>
    <path d="m-144.91,426.18l0,33.79l-11.23,0l0,-33.79l11.23,0zm-5.61,38.41c3.91,0 6.35,2.59 6.35,5.84c-0.07,3.31 -2.44,5.83 -6.28,5.83c-3.84,0 -6.35,-2.52 -6.35,-5.83c0,-3.25 2.43,-5.84 6.2,-5.84l0.08,0z" fill="#ffffff" fill-rule="evenodd" id="svg_4"/>
    <path d="m-138.69,426.18l11.23,0l0,18.87c0,1.01 0.07,2.02 0.37,2.74c0.81,2.02 2.66,4.11 5.76,4.11c4.07,0 5.69,-3.1 5.69,-7.64l0,-18.08l11.24,0l0,19.38c0,10.38 -5.55,15.21 -12.94,15.21c-6.06,0 -8.72,-3.39 -10.19,-5.7l0.07,0l0,4.9l-11.23,0c0.15,-3.17 0,-33.79 0,-33.79z" fill="#ffffff" fill-rule="evenodd" id="svg_5"/>
   </g>
  </g>
 </g>
</svg>