<?xml version="1.0" standalone="no"?>
<!DOCTYPE svg PUBLIC "-//W3C//DTD SVG 20010904//EN"
 "http://www.w3.org/TR/2001/REC-SVG-20010904/DTD/svg10.dtd">
<svg version="1.0" xmlns="http://www.w3.org/2000/svg"
 width="306.000000pt" height="306.000000pt" viewBox="0 0 306.000000 306.000000"
 preserveAspectRatio="xMidYMid meet">

<g transform="translate(0.000000,306.000000) scale(0.100000,-0.100000)"
fill="#FC5656" stroke="none">
<path d="M1393 3032 c-108 -36 -181 -115 -218 -235 l-14 -48 187 -184 187
-183 185 181 c205 202 198 189 155 285 -39 85 -79 128 -153 164 -60 30 -75 33
-172 35 -79 2 -118 -2 -157 -15z"/>
<path d="M628 2716 c-102 -37 -210 -134 -256 -233 -22 -48 -27 -72 -27 -138 0
-70 5 -89 33 -147 l33 -68 437 0 438 0 52 53 52 53 -188 186 c-249 247 -346
309 -480 308 -31 -1 -73 -7 -94 -14z"/>
<path d="M2244 2712 c-125 -44 -142 -60 -942 -857 -426 -423 -801 -804 -834
-845 -34 -41 -75 -104 -92 -140 -27 -56 -31 -76 -31 -145 0 -68 4 -89 29 -140
38 -78 133 -173 211 -211 51 -25 72 -29 141 -29 72 0 87 4 155 37 47 23 109
68 169 121 164 146 1565 1569 1603 1629 86 134 99 261 37 377 -39 72 -126 158
-197 192 -65 32 -177 37 -249 11z"/>
<path d="M394 1919 c-170 -22 -288 -89 -343 -196 -45 -89 -51 -231 -15 -336
31 -92 140 -183 255 -215 l36 -10 334 337 c184 185 354 357 379 384 l44 47
-314 -1 c-173 -1 -343 -5 -376 -10z"/>
<path d="M2365 1530 l-380 -380 351 0 c318 0 358 2 429 20 202 52 294 180 283
394 -8 155 -67 249 -192 307 -113 52 -66 85 -491 -341z"/>
<path d="M2089 943 l-315 -3 -50 -51 -49 -50 190 -187 c105 -103 219 -206 255
-230 179 -118 349 -105 491 37 130 130 153 293 63 449 l-25 42 -122 -2 c-67
-2 -264 -4 -438 -5z"/>
<path d="M1348 513 l-186 -188 18 -59 c54 -171 201 -268 385 -253 99 8 157 31
220 89 53 48 92 114 113 189 l10 36 -187 187 -186 186 -187 -187z"/>
</g>
</svg>
