<?xml version="1.0"?>
<svg width="149" height="169" xmlns="http://www.w3.org/2000/svg" xmlns:svg="http://www.w3.org/2000/svg" version="1.1">
 <!-- Created with SVG-edit - https://github.com/SVG-Edit/svgedit-->
 <g class="layer">
  <title>Layer 1</title>
  <path d="m130.7,32.6c-0.1,-0.9 -0.9,-1.3 -1.5,-1.4c-0.6,-0.1 -12.6,-0.2 -12.6,-0.2c0,0 -10.1,-9.8 -11.1,-10.8c-1,-1 -2.9,-0.7 -3.7,-0.5c0,0 -1.9,0.6 -5.1,1.6c-0.5,-1.7 -1.3,-3.8 -2.4,-5.9c-3.6,-6.9 -8.8,-10.5 -15.2,-10.5c-0.4,0 -0.9,0 -1.3,0.1c-0.2,-0.2 -0.4,-0.4 -0.6,-0.7c-2.8,-3 -6.3,-4.4 -10.5,-4.3c-8.2,0.2 -16.3,6.1 -23,16.7c-4.7,7.4 -8.2,16.7 -9.2,23.9c-9.4,2.9 -16,4.9 -16.1,5c-4.7,1.5 -4.9,1.6 -5.5,6.1c-0.5,3.3 -12.9,99.4 -12.9,99.4l104.1,18l45.1,-11.19c0,0 -18.4,-124.51 -18.5,-125.31zm-39.2,-9.7c-2.4,0.7 -5.1,1.6 -8.1,2.5c-0.1,-4.1 -0.6,-9.9 -2.5,-14.9c6.3,1.2 9.3,8.2 10.6,12.4zm-13.5,4.2c-5.5,1.7 -11.4,3.5 -17.4,5.4c1.7,-6.4 4.9,-12.8 8.8,-17c1.5,-1.6 3.5,-3.3 5.9,-4.3c2.3,4.7 2.7,11.4 2.7,15.9zm-11.2,-21.6c1.9,0 3.5,0.4 4.9,1.3c-2.2,1.1 -4.4,2.8 -6.4,5c-5.2,5.6 -9.2,14.2 -10.8,22.6c-5,1.5 -9.8,3 -14.3,4.4c3,-13.2 14,-32.9 26.6,-33.3z" fill="#95bf47" id="svg_3"/>
  <path d="m129.2,31.2c-0.6,-0.1 -12.6,-0.2 -12.6,-0.2c0,0 -10.1,-9.8 -11.1,-10.8c-0.4,-0.4 -0.9,-0.6 -1.4,-0.6l0,149.5l45.1,-11.19c0,0 -18.4,-124.41 -18.5,-125.31c-0.2,-0.9 -0.9,-1.3 -1.5,-1.4z" fill="#5e8e3e" id="svg_2"/>
  <path d="m79.1,54.4l-5.2,19.6c0,0 -5.8,-2.7 -12.8,-2.2c-10.2,0.6 -10.3,7 -10.2,8.7c0.6,8.8 23.6,10.7 24.9,31.21c1,16.2 -8.6,27.2 -22.4,28.1c-16.6,1 -25.7,-8.7 -25.7,-8.7l3.5,-14.9c0,0 9.2,6.9 16.5,6.5c4.8,-0.3 6.5,-4.2 6.3,-7c-0.7,-11.4 -19.5,-10.8 -20.7,-29.51c-1,-15.8 9.4,-31.8 32.3,-33.3c9,-0.8 13.5,1.5 13.5,1.5z" fill="#ffffff" id="svg_1"/>
 </g>
</svg>