<?xml version="1.0" standalone="no"?>
<!DOCTYPE svg PUBLIC "-//W3C//DTD SVG 20010904//EN"
 "http://www.w3.org/TR/2001/REC-SVG-20010904/DTD/svg10.dtd">
<svg version="1.0" xmlns="http://www.w3.org/2000/svg"
 width="933.000000pt" height="897.000000pt" viewBox="0 0 933.000000 897.000000"
 preserveAspectRatio="xMidYMid meet">

<g transform="translate(0.000000,897.000000) scale(0.100000,-0.100000)"
fill="#ffffff" stroke="none">
<path d="M4473 8715 c-78 -21 -112 -38 -173 -84 -92 -69 -156 -168 -182 -281
-9 -38 -8 -509 5 -2018 9 -1082 19 -2029 22 -2104 3 -89 1 -138 -5 -138 -6 0
-340 148 -743 329 -403 181 -754 335 -781 342 -67 17 -168 5 -233 -27 -72 -35
-143 -106 -179 -179 -26 -54 -29 -69 -29 -160 0 -83 4 -107 23 -145 12 -25
323 -450 690 -946 372 -502 678 -923 690 -951 12 -28 181 -480 377 -1004 196
-525 367 -977 381 -1006 33 -68 118 -145 192 -174 80 -31 195 -31 277 1 71 28
160 111 192 180 11 25 186 488 388 1030 202 542 378 1003 393 1025 14 22 316
432 671 910 355 479 659 897 676 929 97 193 -13 441 -226 507 -80 25 -150 24
-229 -4 -36 -13 -397 -173 -802 -355 -405 -183 -742 -332 -748 -332 -7 0 -10
102 -10 313 -1 171 -9 1131 -19 2132 -19 1787 -19 1821 -40 1885 -77 243 -338
389 -578 325z"/>
</g>
</svg>
