<?xml version="1.0" standalone="no"?>
<!DOCTYPE svg PUBLIC "-//W3C//DTD SVG 20010904//EN"
 "http://www.w3.org/TR/2001/REC-SVG-20010904/DTD/svg10.dtd">
<svg version="1.0" xmlns="http://www.w3.org/2000/svg"
 width="150.000000pt" height="150.000000pt" viewBox="0 0 150.000000 150.000000"
 preserveAspectRatio="xMidYMid meet">

<g transform="translate(0.000000,150.000000) scale(0.100000,-0.100000)"
fill="#FFF" stroke="none">
<path d="M219 1281 l-29 -29 0 -502 0 -502 29 -29 29 -29 502 0 502 0 29 29
29 29 0 236 0 236 -45 0 -45 0 0 -220 0 -220 -470 0 -470 0 0 470 0 470 220 0
220 0 0 45 0 45 -236 0 -236 0 -29 -29z"/>
<path d="M810 1265 l0 -45 172 0 173 0 -313 -313 -312 -312 32 -33 33 -32 312
312 313 313 0 -173 0 -172 45 0 45 0 0 250 0 250 -250 0 -250 0 0 -45z"/>
</g>
</svg>
