<?xml version="1.0"?>
<svg width="850" height="850" xmlns="http://www.w3.org/2000/svg" xmlns:svg="http://www.w3.org/2000/svg" enable-background="new 0 0 957 871" version="1.1" xml:space="preserve">
 <g class="layer">
  <title>Layer 1</title>
  <path d="m662.31,777.79c-53.71,35.9 -112.4,58.59 -176.44,67.79c-219.91,31.59 -426.48,-110.31 -475.61,-327.25c-9.66,-42.66 -12.38,-85.92 -8.65,-129.59c14.71,-172.21 131.45,-317.85 296.61,-369.66c51.27,-16.08 103.75,-21.61 157.34,-18.05c182.24,12.08 339.26,143.02 382.93,324.18c10.17,42.21 13.52,85.07 10.62,128.46c-4.35,65.03 -22.58,125.81 -55.44,182.46c-18.53,-17.66 -36.55,-35.43 -54.6,-53.18c-12.82,-12.61 -25.73,-25.13 -38.49,-37.81c-12.64,-12.55 -25.8,-24.66 -37.53,-38.02c-18.31,-20.86 -26.24,-46.22 -29.27,-73.47c-1.31,-11.85 -3.82,-23.56 -5.8,-35.79c-0.46,-19.49 -2.35,-38.38 -7.19,-56.79c-11.46,-43.55 -32.87,-81.3 -66.42,-111.77c-38.08,-34.59 -82.92,-52.7 -134.23,-54.98c-1.53,-0.07 -3.46,0.22 -4.57,1.13c-3.18,2.59 -6.04,5.59 -9.76,9.12c2.08,1.67 3.61,2.7 4.88,3.98c31.48,31.45 62.87,62.99 94.46,94.33c5.59,5.56 7.37,11.77 5.42,19.04c-12.05,45.08 -24.27,90.11 -36.29,135.19c-1.98,7.46 -6.65,11.46 -13.83,13.37c-44,11.66 -88.03,23.22 -131.92,35.27c-9.37,2.57 -16.28,0.61 -22.93,-6.11c-30.96,-31.27 -62.11,-62.34 -93.2,-93.47c-1.24,-1.24 -2.55,-2.42 -4.07,-3.86c-3.01,3.12 -5.78,5.78 -8.25,8.69c-0.96,1.13 -1.84,2.88 -1.73,4.27c0.67,8.44 1.32,16.91 2.57,25.29c6.04,40.8 23.11,76.65 50.4,107.33c35.34,39.73 80.13,62.55 132.61,71.63c25.36,5.43 50.33,11.14 75.51,15.68c24.41,4.39 46.97,12.58 65.95,28.83c9.72,8.32 18.72,17.52 27.87,26.5c36.39,35.72 72.7,71.5 109.05,107.26m-255.3,-565.07c-2.12,-2.12 -4.24,-4.24 -6.37,-6.35c-5.37,-5.34 -11.68,-7.48 -19.14,-5.5c-8.99,2.4 -17.95,4.9 -26.94,7.3c-27.78,7.43 -55.54,14.92 -83.36,22.19c-8.33,2.17 -13.64,6.64 -15.78,15.32c-3.91,15.81 -8.4,31.47 -12.61,47.21c-5.75,21.52 -11.41,43.07 -17.22,64.58c-1.84,6.8 -0.15,12.59 4.65,17.4c27.39,27.5 54.85,54.93 82.34,82.34c5.35,5.33 11.7,7.15 19.21,5.12c36.58,-9.88 73.16,-19.77 109.81,-29.35c8.9,-2.33 13.91,-7.47 16.2,-16.24c9.38,-35.86 18.73,-71.72 28.65,-107.42c2.65,-9.54 0.82,-16.55 -6.12,-23.38c-24.44,-24.07 -48.58,-48.44 -73.32,-73.22z" fill="#4D4D4F" id="svg_1"/>
  <path d="m662.57,777.68c-36.61,-35.65 -72.92,-71.43 -109.31,-107.15c-9.15,-8.98 -18.15,-18.18 -27.87,-26.5c-18.98,-16.25 -41.54,-24.44 -65.95,-28.83c-25.18,-4.54 -50.15,-10.25 -75.03,-15.7c9.11,0.44 18.03,1.38 26.99,1.78c18.83,0.83 37.51,-0.83 56.1,-3.93c22.71,-3.78 44.13,-10.59 63.52,-23.54c23.65,-15.8 43.89,-35.1 61.18,-57.54c11.02,-14.32 20.49,-29.66 25.44,-47.19c6.52,-23.1 10.5,-46.65 10.35,-70.76c1.97,11.77 4.48,23.48 5.79,35.33c3.03,27.25 10.96,52.61 29.27,73.47c11.73,13.36 24.89,25.47 37.53,38.02c12.76,12.68 25.67,25.2 38.49,37.81c18.05,17.75 36.07,35.52 54.38,53.47c-8.83,14.17 -17.95,28.15 -27.73,42.07c-2.26,-1.51 -3.91,-2.91 -5.44,-4.44c-23.11,-23.09 -46.36,-46.03 -69.23,-69.36c-17.01,-17.36 -42.44,-17.99 -58.99,-5.51c-16.1,12.13 -23.1,32.13 -15.84,50.85c2.8,7.21 7.67,14.13 13.1,19.72c23.34,24.04 47.23,47.52 70.9,71.23c1.39,1.39 2.56,3 3.83,4.52c-13.74,10.69 -27.48,21.38 -41.48,32.18z" fill="#00A8E7" id="svg_2"/>
  <path d="m704.37,745.39c-1.59,-1.41 -2.76,-3.02 -4.15,-4.41c-23.67,-23.71 -47.56,-47.19 -70.9,-71.23c-5.43,-5.59 -10.3,-12.51 -13.1,-19.72c-7.26,-18.72 -0.26,-38.72 15.84,-50.85c16.55,-12.48 41.98,-11.85 58.99,5.51c22.87,23.33 46.12,46.27 69.23,69.36c1.53,1.53 3.18,2.93 5.15,4.57c-6.48,8.87 -12.77,18.11 -20.32,26.14c-13.06,13.9 -26.91,27.06 -40.74,40.63z" fill="#005A7E" id="svg_3"/>
  <path d="m627.98,397.86c0.16,24.57 -3.82,48.12 -10.34,71.22c-4.95,17.53 -14.42,32.87 -25.44,47.19c-17.29,22.44 -37.53,41.74 -61.18,57.54c-19.39,12.95 -40.81,19.76 -63.52,23.54c-18.59,3.1 -37.27,4.76 -56.1,3.93c-8.96,-0.4 -17.88,-1.34 -27.3,-2.02c-52.65,-8.82 -97.44,-31.64 -132.78,-71.37c-27.29,-30.68 -44.36,-66.53 -50.4,-107.33c-1.25,-8.38 -1.9,-16.85 -2.57,-25.29c-0.11,-1.39 0.77,-3.14 1.73,-4.27c2.47,-2.91 5.24,-5.57 8.25,-8.69c1.52,1.44 2.83,2.62 4.07,3.86c31.09,31.13 62.24,62.2 93.2,93.47c6.65,6.72 13.56,8.68 22.93,6.11c43.89,-12.05 87.92,-23.61 131.92,-35.27c7.18,-1.91 11.85,-5.91 13.83,-13.37c12.02,-45.08 24.24,-90.11 36.29,-135.19c1.95,-7.27 0.17,-13.48 -5.42,-19.04c-31.59,-31.34 -62.98,-62.88 -94.46,-94.33c-1.27,-1.28 -2.8,-2.31 -4.88,-3.98c3.72,-3.53 6.58,-6.53 9.76,-9.12c1.11,-0.91 3.04,-1.2 4.57,-1.13c51.31,2.28 96.15,20.39 134.23,54.98c33.55,30.47 54.96,68.22 66.42,111.77c4.84,18.41 6.73,37.3 7.19,56.79z" fill="#74C9F5" id="svg_4"/>
  <path d="m407.25,212.98c24.5,24.52 48.64,48.89 73.08,72.96c6.94,6.83 8.77,13.84 6.12,23.38c-9.92,35.7 -19.27,71.56 -28.65,107.42c-2.29,8.77 -7.3,13.91 -16.2,16.24c-36.65,9.58 -73.23,19.47 -109.81,29.35c-7.51,2.03 -13.86,0.21 -19.21,-5.12c-27.49,-27.41 -54.95,-54.84 -82.34,-82.34c-4.8,-4.81 -6.49,-10.6 -4.65,-17.4c5.81,-21.51 11.47,-43.06 17.22,-64.58c4.21,-15.74 8.7,-31.4 12.61,-47.21c2.14,-8.68 7.45,-13.15 15.78,-15.32c27.82,-7.27 55.58,-14.76 83.36,-22.19c8.99,-2.4 17.95,-4.9 26.94,-7.3c7.46,-1.98 13.77,0.16 19.14,5.5c2.13,2.11 4.25,4.23 6.61,6.61m-61.59,4.52c-24.54,6.6 -49.06,13.26 -73.63,19.72c-5.39,1.42 -8.7,4.38 -10.08,9.78c-2.92,11.41 -5.94,22.8 -8.97,34.18c-6.85,25.68 -13.74,51.34 -20.62,77.01c-1.31,4.91 -0.32,8.94 3.46,12.68c27.18,27.01 54.27,54.1 81.27,81.28c3.7,3.72 7.65,5.08 12.61,3.75c18.77,-5.02 37.52,-10.07 56.28,-15.09c18.29,-4.89 36.58,-9.8 54.89,-14.61c5.57,-1.47 8.69,-4.87 10.08,-10.46c3,-12.08 6.27,-24.1 9.49,-36.12c6.52,-24.38 12.96,-48.78 19.73,-73.09c1.73,-6.23 0.33,-10.98 -4.07,-15.38c-26.42,-26.35 -52.82,-52.72 -79.14,-79.17c-4.62,-4.65 -9.69,-5.73 -15.88,-3.97c-11.5,3.26 -23.08,6.24 -35.42,9.49z" fill="#FAEA99" id="svg_5"/>
  <path d="m346.06,217.43c11.94,-3.18 23.52,-6.16 35.02,-9.42c6.19,-1.76 11.26,-0.68 15.88,3.97c26.32,26.45 52.72,52.82 79.14,79.17c4.4,4.4 5.8,9.15 4.07,15.38c-6.77,24.31 -13.21,48.71 -19.73,73.09c-3.22,12.02 -6.49,24.04 -9.49,36.12c-1.39,5.59 -4.51,8.99 -10.08,10.46c-18.31,4.81 -36.6,9.72 -54.89,14.61c-18.76,5.02 -37.51,10.07 -56.28,15.09c-4.96,1.33 -8.91,-0.03 -12.61,-3.75c-27,-27.18 -54.09,-54.27 -81.27,-81.28c-3.78,-3.74 -4.77,-7.77 -3.46,-12.68c6.88,-25.67 13.77,-51.33 20.62,-77.01c3.03,-11.38 6.05,-22.77 8.97,-34.18c1.38,-5.4 4.69,-8.36 10.08,-9.78c24.57,-6.46 49.09,-13.12 74.03,-19.79m-3.44,179.82c17.5,3.05 33.93,0.74 49.29,-8.84c30.14,-18.8 40.3,-57.7 23.64,-88.27c-19.5,-35.78 -63.97,-46.11 -96.44,-23.93c-24.12,16.48 -33.97,41.75 -27.98,69.56c5.87,27.26 23.61,44.24 51.49,51.48z" fill="#D47370" id="svg_6"/>
  <path d="m342.21,397.17c-27.47,-7.16 -45.21,-24.14 -51.08,-51.4c-5.99,-27.81 3.86,-53.08 27.98,-69.56c32.47,-22.18 76.94,-11.85 96.44,23.93c16.66,30.57 6.5,69.47 -23.64,88.27c-15.36,9.58 -31.79,11.89 -49.7,8.76m53.84,-20.15c12.33,-10.88 19.33,-24.67 20.54,-40.87c2.26,-30.52 -18.9,-57.08 -47.34,-63.37c-39.35,-8.71 -80.53,24.42 -71.83,70.43c8.63,45.64 62.53,64.07 98.63,33.81z" fill="#FBEB99" id="svg_7"/>
  <path d="m395.77,377.23c-35.82,30.05 -89.72,11.62 -98.35,-34.02c-8.7,-46.01 32.48,-79.14 71.83,-70.43c28.44,6.29 49.6,32.85 47.34,63.37c-1.21,16.2 -8.21,29.99 -20.82,41.08z" fill="#4E4E4F" id="svg_8"/>
 </g>
</svg>