<?xml version="1.0"?>
<svg width="850" height="850" xmlns="http://www.w3.org/2000/svg" xmlns:svg="http://www.w3.org/2000/svg" enable-background="new 0 0 921 868" version="1.1" xml:space="preserve">
 <g class="layer">
  <title>Layer 1</title>
  <path d="m193.85,68.41c52.84,-34.08 109.96,-55.43 171.95,-64.19c220.12,-31.12 428.14,113.12 474.91,329.7c9.92,45.95 12.26,92.4 7.06,139.11c-20.22,181.57 -156.91,331.79 -335.03,368.24c-45.21,9.25 -90.81,11.23 -136.7,6.13c-177.32,-19.74 -326.45,-153.46 -365.22,-327.41c-10.64,-47.74 -13.92,-95.99 -7.65,-144.47c16.95,-130.99 81.06,-233.05 190.68,-307.11m313.72,633.53c4.64,-0.16 9.35,0.14 13.91,-0.57c9.48,-1.47 19.07,-2.78 26.95,-9.19c31.85,-25.9 63.68,-51.82 95.68,-77.54c12.03,-9.66 18.67,-21.38 16.7,-38.1c0.01,-133.49 0.03,-266.98 0.01,-400.48c0,-16.95 -10.84,-27.63 -27.9,-27.63c-138.5,-0.02 -276.99,-0.02 -415.48,0c-16.86,0 -27.53,10.62 -27.53,27.4c-0.01,166.16 -0.01,332.31 0.02,498.47c0,2.48 0.1,5.03 0.67,7.43c3.1,12.94 12.7,19.91 27.34,19.91c87.82,0.02 175.65,0.01 263.48,0c8.5,0 17,-0.07 26.15,0.3z" fill="#4D4D4F" id="svg_1" opacity="1"/>
  <path d="m506.91,701.53c-8.49,0.04 -16.99,0.11 -25.49,0.11c-87.83,0.01 -175.66,0.02 -263.48,0c-14.64,0 -24.24,-6.97 -27.34,-19.91c-0.57,-2.4 -0.67,-4.95 -0.67,-7.43c-0.03,-166.16 -0.03,-332.31 -0.02,-498.47c0,-16.78 10.67,-27.4 27.53,-27.4c138.49,-0.02 276.98,-0.02 415.48,0c17.06,0 27.9,10.68 27.9,27.63c0.02,133.5 0,266.99 -0.52,400.95c-4.6,0.41 -8.7,0.36 -12.73,-0.15c0.07,-133.42 0.1,-266.38 0.08,-399.35c0,-11.39 -4.74,-15.94 -16.21,-15.94c-63.49,0 -126.97,0.01 -190.46,0c-29.32,-0.01 -58.65,-0.06 -88.01,-0.45c-5.35,-4.04 -10.68,-7.72 -16.14,-11.5c-3.07,4.61 -5.55,8.33 -8.49,12.01c-36.77,-0.04 -73.09,-0.06 -109.4,-0.06c-11.47,0 -15.89,4.51 -15.89,16.15c-0.01,164.92 -0.01,329.84 0,494.75c0,11.57 4.43,16 15.99,16.01c71.8,0 143.59,0 215.39,-0.01c24.16,0 48.31,-0.05 72.47,0.39c0.01,4.54 0.01,8.6 0.01,12.67z" fill="#74C9F5" id="svg_2" opacity="1"/>
  <path d="m647.51,577.32c4.09,0.05 8.19,0.1 12.74,0.15c2.53,15.79 -4.11,27.51 -16.14,37.17c-32,25.72 -63.83,51.64 -95.68,77.54c-7.88,6.41 -17.47,7.72 -26.95,9.19c-4.56,0.71 -9.27,0.41 -14.24,0.37c-0.33,-4.28 -0.33,-8.34 -0.32,-13.34c0.02,-27.88 -0.23,-54.83 0.25,-81.78c0.1,-5.51 1.96,-11.54 4.72,-16.35c5.19,-9.02 13.84,-12.84 24.33,-12.83c37.09,0.03 74.19,-0.07 111.29,-0.12m-98.99,97.25c20.69,-16.74 41.43,-33.4 62.04,-50.24c10.82,-8.83 21.45,-17.89 32.03,-27.01c1.66,-1.43 2.58,-3.72 4.6,-6.74c-3.47,0 -5.27,0 -7.07,0c-33.64,0 -67.29,0 -100.93,0c-13.23,0.01 -19.07,5.87 -19.08,19.22c-0.01,23.99 0,47.97 0,71.96c0,1.78 0,3.55 0,5.63c11.9,0.56 20.23,-5.13 28.41,-12.82z" fill="#7CC9E8" id="svg_3" opacity="1"/>
  <path d="m647.57,576.86c-37.16,0.51 -74.26,0.61 -111.35,0.58c-10.49,-0.01 -19.14,3.81 -24.33,12.83c-2.76,4.81 -4.62,10.84 -4.72,16.35c-0.48,26.95 -0.23,53.9 -0.26,81.31c-24.17,0.49 -48.32,0.54 -72.48,0.54c-71.8,0.01 -143.59,0.01 -215.39,0.01c-11.56,-0.01 -15.99,-4.44 -15.99,-16.01c-0.01,-164.91 -0.01,-329.83 0,-494.75c0,-11.64 4.42,-16.15 15.89,-16.15c36.31,0 72.63,0.02 109.3,0.37c-11.58,19.44 -23.53,38.53 -35.93,57.59c-15.18,-0.04 -29.9,-0.06 -44.63,-0.06c-6.39,0 -6.54,0.17 -7.22,6.52c-4.77,-4.94 -9.3,-9.71 -14.03,-14.68c-4.96,4.64 -9.51,8.92 -14.38,13.48c1.59,1.77 2.77,3.1 3.98,4.41c8.31,9.01 16.63,18.01 24.89,27.5c-0.07,8.8 0.01,17.11 -0.12,25.42c-0.06,3.67 1.11,5.62 5.12,5.54c8.3,-0.17 16.61,-0.13 25.2,-0.03c1.36,0.05 2.45,-0.05 4.03,-0.08c9.78,0.06 19.08,-0.01 28.38,0.12c3.75,0.05 5.5,-1.35 5.47,-5.23c-0.13,-16.6 -0.14,-33.2 -0.07,-50.14c14.78,-23.83 29.42,-47.32 44.07,-70.82c29.33,0.03 58.66,0.08 87.98,0.09c63.49,0.01 126.97,0 190.46,0c11.47,0 16.21,4.55 16.21,15.94c0.02,132.97 -0.01,265.93 -0.08,399.35m-267.91,-165.28c36.43,18.97 72.87,37.94 108.83,57.64c-1.98,0.1 -3.97,0.28 -5.96,0.28c-45.81,0.02 -91.63,0.01 -137.45,0.02c-6.4,0 -7.28,0.84 -7.29,7.16c-0.02,17.99 -0.02,35.99 0.01,53.98c0.01,5.99 1.04,7.06 6.95,7.06c85.8,0.02 171.6,0.02 257.4,0c5.88,0 6.78,-1.01 6.78,-7.16c0.02,-17.99 0.01,-35.98 0.01,-53.98c0,-6.4 -0.66,-7.06 -7.24,-7.06c-20.99,-0.02 -41.99,0.02 -62.98,-0.05c-2.28,-0.01 -4.56,-0.58 -7.44,-1.26c-24.7,-12.9 -49.43,-25.76 -74.11,-38.73c-11.87,-6.23 -23.63,-12.67 -34.48,-18.97c2.17,-0.02 4.33,-0.05 6.5,-0.05c56.93,0 113.87,0 170.8,0c8.51,0 8.95,-0.45 8.95,-9.11c0,-17.65 -0.1,-35.29 0.07,-52.94c0.04,-4.18 -1.23,-6.19 -5.61,-6.17c-21.64,0.13 -43.28,0.14 -65.38,-0.39c-7.96,-4.18 -15.92,-8.35 -23.88,-12.52c-26.23,-13.75 -52.45,-27.5 -77.7,-41.4c2.33,-0.03 4.67,-0.07 7,-0.07c52.66,-0.01 105.32,0 157.98,-0.02c6.64,0 7.51,-0.9 7.52,-7.47c0.01,-17.83 0,-35.67 0,-53.5c0,-6.8 -0.52,-7.33 -7.45,-7.34c-85.49,0 -170.98,0 -256.47,0.01c-6.39,0 -7.25,0.84 -7.26,7.22c-0.02,17.66 -0.02,35.33 0,52.99c0,7.26 0.81,8.07 8.01,8.1c15.32,0.08 30.65,0.16 46.55,0.5c33.87,17.71 67.74,35.42 101,53.69c-1.82,0.08 -3.64,0.22 -5.47,0.22c-47.58,0.01 -95.17,0.01 -142.75,0.02c-6.59,0 -7.3,0.67 -7.31,7.06c-0.02,17.81 -0.02,35.61 0,53.41c0.01,6.69 1.04,7.69 7.92,7.71c9.15,0.02 18.3,-0.04 27.45,0.04c1.96,0.02 3.92,0.49 6.5,1.08m-134.05,238.76c71.95,0 143.9,0 215.85,0c1.5,0 3.08,0.28 4.47,-0.11c1.02,-0.29 2.51,-1.43 2.54,-2.24c0.21,-6.1 0.12,-12.21 0.12,-18.39c-76.2,0 -151.72,0 -227.73,0c0,6.3 -0.16,12.26 0.17,18.2c0.05,0.91 2.37,1.7 4.58,2.54m162.81,-67.86c-55.71,0 -111.43,0 -167.15,0c0,7.37 0,14.08 0,20.71c75.77,0 151.12,0 226.69,0c0,-6.92 0,-13.5 0,-20.71c-19.68,0 -39.11,0 -59.54,0m-99.45,-191.5c0,-14.31 -0.11,-28.62 0.06,-42.93c0.06,-4.54 -1.78,-6.37 -6.17,-6.31c-6.82,0.08 -13.64,0.02 -20.46,0.02c-11.82,0 -23.63,0 -35.44,0c-3.54,0 -6.17,0.81 -6.15,5.25c0.09,19.46 0.05,38.93 0.03,58.4c-0.01,3.31 1.56,4.94 4.84,4.94c19.46,0.01 38.93,0.01 58.39,0.01c3.25,0 4.92,-1.59 4.9,-4.91c-0.03,-4.49 0,-8.98 0,-14.47m-0.01,126c0,-13.65 -0.1,-27.3 0.06,-40.95c0.06,-4.58 -1.36,-6.67 -6.28,-6.62c-18.65,0.18 -37.29,0.14 -55.94,0.02c-4.21,-0.03 -6.03,1.49 -6,5.83c0.12,18.98 0.1,37.96 0.01,56.94c-0.02,3.76 1.26,5.46 5.2,5.44c19.31,-0.09 38.62,-0.08 57.93,-0.01c3.69,0.02 5.08,-1.69 5.04,-5.17c-0.07,-4.83 -0.02,-9.65 -0.02,-15.48z" fill="#FEEF9B" id="svg_4" opacity="1"/>
  <path d="m274.66,287.49c-1.09,0.09 -2.18,0.19 -3.67,-0.17c-5.49,-5.31 -10.74,-10.01 -15.63,-15.07c-4.98,-5.16 -9.6,-10.68 -14.38,-16.04c-8.32,-9 -16.64,-18 -24.95,-27.01c-1.21,-1.31 -2.39,-2.64 -3.98,-4.41c4.87,-4.56 9.42,-8.84 14.38,-13.48c4.73,4.97 9.26,9.74 14.23,14.99c4.71,4.79 8.97,9.1 13.39,13.68c5.24,5.78 10.32,11.28 15.77,17.2c5.19,-8.62 9.79,-16.25 14.6,-24.13c2.92,-4.65 5.64,-9.07 8.35,-13.49c11.94,-19.09 23.89,-38.18 35.93,-57.59c2.58,-4.02 5.06,-7.74 8.13,-12.35c5.46,3.78 10.79,7.46 16.14,11.5c-14.62,23.86 -29.26,47.35 -44.31,71.35c-4.6,7.39 -8.8,14.26 -13.23,21.35c-4.35,6.99 -8.46,13.77 -12.86,20.74c-2.82,4.45 -5.36,8.69 -7.91,12.93z" fill="#D47371" id="svg_5" opacity="1"/>
  <path d="m548.26,674.81c-7.92,7.45 -16.25,13.14 -28.15,12.58c0,-2.08 0,-3.85 0,-5.63c0,-23.99 -0.01,-47.97 0,-71.96c0.01,-13.35 5.85,-19.21 19.08,-19.22c33.64,0 67.29,0 100.93,0c1.8,0 3.6,0 7.07,0c-2.02,3.02 -2.94,5.31 -4.6,6.74c-10.58,9.12 -21.21,18.18 -32.03,27.01c-20.61,16.84 -41.35,33.5 -62.3,50.48z" fill="#B39372" id="svg_6" opacity="1"/>
  <path d="m391.75,288.09c-15.33,-0.08 -30.66,-0.16 -45.98,-0.24c-7.2,-0.03 -8.01,-0.84 -8.01,-8.1c-0.02,-17.66 -0.02,-35.33 0,-52.99c0.01,-6.38 0.87,-7.22 7.26,-7.22c85.49,-0.01 170.98,-0.01 256.47,-0.01c6.93,0.01 7.45,0.54 7.45,7.34c0,17.83 0.01,35.67 0,53.5c-0.01,6.57 -0.88,7.47 -7.52,7.47c-52.66,0.02 -105.32,0.01 -157.98,0.02c-2.33,0 -4.67,0.04 -7.9,0.04c-15.2,0.04 -29.49,0.11 -43.79,0.19z" fill="#1EA7DF" id="svg_7" opacity="1"/>
  <path d="m531.89,468.58c2.27,0.31 4.55,0.88 6.83,0.89c20.99,0.07 41.99,0.03 62.98,0.05c6.58,0 7.24,0.66 7.24,7.06c0,18 0.01,35.99 -0.01,53.98c0,6.15 -0.9,7.16 -6.78,7.16c-85.8,0.02 -171.6,0.02 -257.4,0c-5.91,0 -6.94,-1.07 -6.95,-7.06c-0.03,-17.99 -0.03,-35.99 -0.01,-53.98c0.01,-6.32 0.89,-7.16 7.29,-7.16c45.82,-0.01 91.64,0 137.45,-0.02c1.99,0 3.98,-0.18 6.59,-0.52c1.08,-0.04 1.53,0.34 1.98,0.34c13.19,0.04 26.39,0.05 39.58,0.02c0.4,0 0.8,-0.5 1.21,-0.76m63.76,53.88c0.03,-11.15 -0.22,-22.32 0.22,-33.47c0.2,-5.14 -1.35,-6.38 -6.39,-6.36c-76.95,0.16 -153.9,0.11 -230.85,0.11c-0.84,0 -1.67,0.04 -2.5,-0.01c-3.7,-0.24 -5.33,1.07 -5.23,5.16c0.27,10.48 0.28,20.99 0,31.47c-0.12,4.35 1.54,5.23 5.51,5.23c77.95,-0.1 155.9,-0.07 233.85,-0.13c1.7,0 3.39,-0.74 5.39,-2z" fill="#797979" id="svg_8" opacity="1"/>
  <path d="m538.48,342.44c21.64,-0.06 43.28,-0.07 64.92,-0.2c4.38,-0.02 5.65,1.99 5.61,6.17c-0.17,17.65 -0.07,35.29 -0.07,52.94c0,8.66 -0.44,9.11 -8.95,9.11c-56.93,0 -113.87,0 -170.8,0c-2.17,0 -4.33,0.03 -7.43,0.06c-13.29,-0.01 -25.65,-0.06 -38,-0.02c-1.58,0 -3.15,0.49 -4.72,0.76c-1.96,-0.27 -3.92,-0.74 -5.88,-0.76c-9.15,-0.08 -18.3,-0.02 -27.45,-0.04c-6.88,-0.02 -7.91,-1.02 -7.92,-7.71c-0.02,-17.8 -0.02,-35.6 0,-53.41c0.01,-6.39 0.72,-7.06 7.31,-7.06c47.58,-0.01 95.17,-0.01 142.75,-0.02c1.83,0 3.65,-0.14 6.2,-0.48c2.83,0.05 4.94,0.6 7.05,0.62c12.46,0.08 24.92,0.04 37.38,0.04m-35.06,54.8c27.48,0 54.96,0 82.44,0c2.17,0 4.41,0.32 6.47,-0.14c1.27,-0.27 3.25,-1.71 3.27,-2.66c0.22,-12.78 0.15,-25.56 0.15,-38.57c-1.64,-0.17 -2.76,-0.38 -3.87,-0.38c-78.78,-0.02 -157.56,0 -236.34,-0.08c-3.42,0 -4.69,0.94 -4.62,4.52c0.2,10.15 0.06,20.31 0.07,30.47c0.01,6.82 0.01,6.84 7.03,6.84c48.13,0.01 96.27,0 145.4,0z" fill="#797979" id="svg_9" opacity="1"/>
  <path d="m245.14,650.34c-1.74,-0.84 -4.06,-1.63 -4.11,-2.54c-0.33,-5.94 -0.17,-11.9 -0.17,-18.2c76.01,0 151.53,0 227.73,0c0,6.18 0.09,12.29 -0.12,18.39c-0.03,0.81 -1.52,1.95 -2.54,2.24c-1.39,0.39 -2.97,0.11 -4.47,0.11c-71.95,0 -143.9,0 -216.32,0z" fill="#7A7A7A" id="svg_10" opacity="1"/>
  <path d="m408.92,582.48c19.93,0 39.36,0 59.04,0c0,7.21 0,13.79 0,20.71c-75.57,0 -150.92,0 -226.69,0c0,-6.63 0,-13.34 0,-20.71c55.72,0 111.44,0 167.65,0z" fill="#787879" id="svg_11" opacity="1"/>
  <path d="m308.97,391.48c0,4.99 -0.03,9.48 0,13.97c0.02,3.32 -1.65,4.91 -4.9,4.91c-19.46,0 -38.93,0 -58.39,-0.01c-3.28,0 -4.85,-1.63 -4.84,-4.94c0.02,-19.47 0.06,-38.94 -0.03,-58.4c-0.02,-4.44 2.61,-5.25 6.15,-5.25c11.81,0 23.62,0 35.44,0c6.82,0 13.64,0.06 20.46,-0.02c4.39,-0.06 6.23,1.77 6.17,6.31c-0.17,14.31 -0.06,28.62 -0.06,43.43m-36.55,5.28c7.6,0 15.2,0 23.08,0c0,-14.01 0,-27.38 0,-40.82c-13.96,0 -27.62,0 -41.19,0c0,13.71 0,26.96 0,40.82c5.9,0 11.5,0 18.11,0z" fill="#7B7B7A" id="svg_12" opacity="1"/>
  <path d="m308.96,517.48c0,5.33 -0.05,10.15 0.02,14.98c0.04,3.48 -1.35,5.19 -5.04,5.17c-19.31,-0.07 -38.62,-0.08 -57.93,0.01c-3.94,0.02 -5.22,-1.68 -5.2,-5.44c0.09,-18.98 0.11,-37.96 -0.01,-56.94c-0.03,-4.34 1.79,-5.86 6,-5.83c18.65,0.12 37.29,0.16 55.94,-0.02c4.92,-0.05 6.34,2.04 6.28,6.62c-0.16,13.65 -0.06,27.3 -0.06,41.45m-34.54,-34.29c-6.61,0 -13.22,0 -20.12,0c0,13.98 0,27.36 0,40.85c13.93,0 27.59,0 41.21,0c0,-13.7 0,-26.96 0,-40.85c-6.88,0 -13.49,0 -21.09,0z" fill="#797979" id="svg_13" opacity="1"/>
  <path d="m379.35,411.42c1.26,-0.43 2.83,-0.92 4.41,-0.92c12.35,-0.04 24.71,0.01 37.52,0c12.26,6.31 24.02,12.75 35.89,18.98c24.68,12.97 49.41,25.83 74.41,38.92c-0.1,0.44 -0.5,0.94 -0.9,0.94c-13.19,0.03 -26.39,0.02 -39.58,-0.02c-0.45,0 -0.9,-0.38 -1.74,-0.7c-36.83,-19.1 -73.27,-38.07 -110.01,-57.2z" fill="#4F4F50" id="svg_14" opacity="1"/>
  <path d="m538.25,342.14c-12.23,0.3 -24.69,0.34 -37.15,0.26c-2.11,-0.02 -4.22,-0.57 -6.75,-0.89c-34.29,-17.74 -68.16,-35.45 -102.32,-53.29c14.02,-0.21 28.31,-0.28 43.02,-0.25c26.64,13.86 52.86,27.61 79.09,41.36c7.96,4.17 15.92,8.34 24.11,12.81z" fill="#4F5051" id="svg_15" opacity="1"/>
  <path d="m295.67,253.61c4.19,-6.88 8.39,-13.75 12.86,-20.8c0.33,16.43 0.34,33.03 0.47,49.63c0.03,3.88 -1.72,5.28 -5.47,5.23c-9.3,-0.13 -18.6,-0.06 -28.38,-0.12c2.06,-4.3 4.6,-8.54 7.89,-12.93c4.64,-0.15 8.53,-0.15 12.63,-0.15c0,-7.4 0,-14.13 0,-20.86z" fill="#1FA7DE" id="svg_16" opacity="1"/>
  <path d="m292.31,219.53c-2.25,4.45 -4.97,8.87 -8.39,13.45c-10.29,0.17 -19.87,0.17 -29.66,0.17c-0.15,2.62 -0.26,4.59 -0.38,6.55c-4.25,-4.3 -8.51,-8.61 -12.97,-13.22c0.23,-6.84 0.38,-7.01 6.77,-7.01c14.73,0 29.45,0.02 44.63,0.06z" fill="#24A8DD" id="svg_17" opacity="1"/>
  <path d="m240.92,256.7c4.84,4.87 9.46,10.39 14.44,15.55c4.89,5.06 10.14,9.76 15.36,14.92c-8.19,0.36 -16.5,0.32 -24.8,0.49c-4.01,0.08 -5.18,-1.87 -5.12,-5.54c0.13,-8.31 0.05,-16.62 0.12,-25.42z" fill="#1FA7DE" id="svg_18" opacity="1"/>
  <path d="m254.05,239.98c-0.05,-2.24 0.06,-4.21 0.21,-6.83c9.79,0 19.37,0 29.46,0.07c-4.11,7.71 -8.71,15.34 -13.9,23.96c-5.45,-5.92 -10.53,-11.42 -15.77,-17.2z" fill="#FEEE9B" id="svg_19" opacity="1"/>
  <path d="m295.43,253.82c0.24,6.52 0.24,13.25 0.24,20.65c-4.1,0 -7.99,0 -12.35,-0.05c3.65,-6.83 7.76,-13.61 12.11,-20.6z" fill="#F7EB9D" id="svg_20" opacity="1"/>
  <path d="m595.5,522.89c-1.85,0.83 -3.54,1.57 -5.24,1.57c-77.95,0.06 -155.9,0.03 -233.85,0.13c-3.97,0 -5.63,-0.88 -5.51,-5.23c0.28,-10.48 0.27,-20.99 0,-31.47c-0.1,-4.09 1.53,-5.4 5.23,-5.16c0.83,0.05 1.66,0.01 2.5,0.01c76.95,0 153.9,0.05 230.85,-0.11c5.04,-0.02 6.59,1.22 6.39,6.36c-0.44,11.15 -0.19,22.32 -0.37,33.9z" fill="#FDEE9A" id="svg_21" opacity="1"/>
  <path d="m502.92,397.24c-48.63,0 -96.77,0.01 -144.9,0c-7.02,0 -7.02,-0.02 -7.03,-6.84c-0.01,-10.16 0.13,-20.32 -0.07,-30.47c-0.07,-3.58 1.2,-4.52 4.62,-4.52c78.78,0.08 157.56,0.06 236.34,0.08c1.11,0 2.23,0.21 3.87,0.38c0,13.01 0.07,25.79 -0.15,38.57c-0.02,0.95 -2,2.39 -3.27,2.66c-2.06,0.46 -4.3,0.14 -6.47,0.14c-27.48,0 -54.96,0 -82.94,0z" fill="#FDEE9B" id="svg_22" opacity="1"/>
  <path d="m271.92,396.76c-6.11,0 -11.71,0 -17.61,0c0,-13.86 0,-27.11 0,-40.82c13.57,0 27.23,0 41.19,0c0,13.44 0,26.81 0,40.82c-7.88,0 -15.48,0 -23.58,0z" fill="#FEEF9B" id="svg_23" opacity="1"/>
  <path d="m274.92,483.19c7.1,0 13.71,0 20.59,0c0,13.89 0,27.15 0,40.85c-13.62,0 -27.28,0 -41.21,0c0,-13.49 0,-26.87 0,-40.85c6.9,0 13.51,0 20.62,0z" fill="#FEEF9B" id="svg_24" opacity="1"/>
 </g>
</svg>